<mxfile host="app.diagrams.net" agent="Mozilla/5.0 (Windows NT 10.0; Win64; x64) AppleWebKit/537.36 (KHTML, like Gecko) Chrome/134.0.0.0 Safari/537.36" version="26.1.1">
  <diagram name="第 1 页" id="rrIptmUhMDRttv6J9IcH">
    <mxGraphModel dx="1932" dy="1727" grid="1" gridSize="10" guides="1" tooltips="1" connect="1" arrows="1" fold="1" page="1" pageScale="1" pageWidth="827" pageHeight="1169" math="0" shadow="0">
      <root>
        <mxCell id="0" />
        <mxCell id="1" parent="0" />
        <mxCell id="RqGZiLB4w0OGu2-XOStV-134" value="" style="edgeStyle=orthogonalEdgeStyle;rounded=0;orthogonalLoop=1;jettySize=auto;html=1;" parent="1" source="RqGZiLB4w0OGu2-XOStV-1" target="RqGZiLB4w0OGu2-XOStV-132" edge="1">
          <mxGeometry relative="1" as="geometry" />
        </mxCell>
        <mxCell id="RqGZiLB4w0OGu2-XOStV-1" value="ResBlk" style="rounded=1;whiteSpace=wrap;html=1;fontFamily=Comic Sans MS;" parent="1" vertex="1">
          <mxGeometry x="80" y="331" width="70" height="30" as="geometry" />
        </mxCell>
        <mxCell id="RqGZiLB4w0OGu2-XOStV-9" style="edgeStyle=orthogonalEdgeStyle;rounded=0;orthogonalLoop=1;jettySize=auto;html=1;fontFamily=Comic Sans MS;" parent="1" source="RqGZiLB4w0OGu2-XOStV-2" target="RqGZiLB4w0OGu2-XOStV-5" edge="1">
          <mxGeometry relative="1" as="geometry" />
        </mxCell>
        <mxCell id="RqGZiLB4w0OGu2-XOStV-39" style="edgeStyle=orthogonalEdgeStyle;rounded=0;orthogonalLoop=1;jettySize=auto;html=1;entryX=0.5;entryY=1;entryDx=0;entryDy=0;fontFamily=Comic Sans MS;" parent="1" source="RqGZiLB4w0OGu2-XOStV-2" target="RqGZiLB4w0OGu2-XOStV-36" edge="1">
          <mxGeometry relative="1" as="geometry" />
        </mxCell>
        <mxCell id="RqGZiLB4w0OGu2-XOStV-2" value="Transformer" style="rounded=1;whiteSpace=wrap;html=1;fontFamily=Comic Sans MS;" parent="1" vertex="1">
          <mxGeometry x="299" y="330" width="100" height="30" as="geometry" />
        </mxCell>
        <mxCell id="RqGZiLB4w0OGu2-XOStV-4" style="edgeStyle=orthogonalEdgeStyle;rounded=0;orthogonalLoop=1;jettySize=auto;html=1;entryX=0;entryY=0.5;entryDx=0;entryDy=0;fontFamily=Comic Sans MS;" parent="1" source="RqGZiLB4w0OGu2-XOStV-5" target="RqGZiLB4w0OGu2-XOStV-6" edge="1">
          <mxGeometry relative="1" as="geometry" />
        </mxCell>
        <mxCell id="RqGZiLB4w0OGu2-XOStV-5" value="ResBlk" style="rounded=1;whiteSpace=wrap;html=1;fontFamily=Comic Sans MS;" parent="1" vertex="1">
          <mxGeometry x="314" y="420" width="70" height="30" as="geometry" />
        </mxCell>
        <mxCell id="RqGZiLB4w0OGu2-XOStV-188" style="edgeStyle=orthogonalEdgeStyle;rounded=0;orthogonalLoop=1;jettySize=auto;html=1;entryX=1;entryY=0.5;entryDx=0;entryDy=0;exitX=1;exitY=0.5;exitDx=0;exitDy=0;" parent="1" source="RqGZiLB4w0OGu2-XOStV-6" target="RqGZiLB4w0OGu2-XOStV-187" edge="1">
          <mxGeometry relative="1" as="geometry">
            <Array as="points">
              <mxPoint x="550" y="435" />
              <mxPoint x="550" y="510" />
            </Array>
          </mxGeometry>
        </mxCell>
        <mxCell id="RqGZiLB4w0OGu2-XOStV-6" value="Transformer" style="rounded=1;whiteSpace=wrap;html=1;fontFamily=Comic Sans MS;" parent="1" vertex="1">
          <mxGeometry x="429" y="420" width="100" height="30" as="geometry" />
        </mxCell>
        <mxCell id="RqGZiLB4w0OGu2-XOStV-22" value="&lt;font style=&quot;color: rgb(51, 51, 255);&quot;&gt;ControlNet&lt;/font&gt;" style="text;html=1;align=center;verticalAlign=middle;resizable=0;points=[];autosize=1;strokeColor=none;fillColor=none;fontFamily=Comic Sans MS;fontStyle=1" parent="1" vertex="1">
          <mxGeometry x="434" y="-10" width="90" height="30" as="geometry" />
        </mxCell>
        <mxCell id="RqGZiLB4w0OGu2-XOStV-24" style="edgeStyle=orthogonalEdgeStyle;rounded=0;orthogonalLoop=1;jettySize=auto;html=1;entryX=0;entryY=0.5;entryDx=0;entryDy=0;fontFamily=Comic Sans MS;" parent="1" source="RqGZiLB4w0OGu2-XOStV-25" target="RqGZiLB4w0OGu2-XOStV-26" edge="1">
          <mxGeometry relative="1" as="geometry" />
        </mxCell>
        <mxCell id="RqGZiLB4w0OGu2-XOStV-25" value="ResBlk" style="rounded=1;whiteSpace=wrap;html=1;fontFamily=Comic Sans MS;" parent="1" vertex="1">
          <mxGeometry x="570" y="330" width="70" height="30" as="geometry" />
        </mxCell>
        <mxCell id="RqGZiLB4w0OGu2-XOStV-30" style="edgeStyle=orthogonalEdgeStyle;rounded=0;orthogonalLoop=1;jettySize=auto;html=1;entryX=0.5;entryY=1;entryDx=0;entryDy=0;fontFamily=Comic Sans MS;" parent="1" source="RqGZiLB4w0OGu2-XOStV-26" target="RqGZiLB4w0OGu2-XOStV-28" edge="1">
          <mxGeometry relative="1" as="geometry" />
        </mxCell>
        <mxCell id="RqGZiLB4w0OGu2-XOStV-26" value="Transformer" style="rounded=1;whiteSpace=wrap;html=1;fontFamily=Comic Sans MS;" parent="1" vertex="1">
          <mxGeometry x="668" y="330" width="100" height="30" as="geometry" />
        </mxCell>
        <mxCell id="RqGZiLB4w0OGu2-XOStV-151" value="" style="edgeStyle=orthogonalEdgeStyle;rounded=0;orthogonalLoop=1;jettySize=auto;html=1;entryX=0;entryY=0.5;entryDx=0;entryDy=0;" parent="1" source="RqGZiLB4w0OGu2-XOStV-27" target="RqGZiLB4w0OGu2-XOStV-150" edge="1">
          <mxGeometry relative="1" as="geometry">
            <Array as="points">
              <mxPoint x="910" y="275" />
            </Array>
          </mxGeometry>
        </mxCell>
        <mxCell id="RqGZiLB4w0OGu2-XOStV-165" style="edgeStyle=orthogonalEdgeStyle;rounded=0;orthogonalLoop=1;jettySize=auto;html=1;entryX=0;entryY=0.5;entryDx=0;entryDy=0;" parent="1" source="RqGZiLB4w0OGu2-XOStV-27" target="RqGZiLB4w0OGu2-XOStV-164" edge="1">
          <mxGeometry relative="1" as="geometry" />
        </mxCell>
        <mxCell id="RqGZiLB4w0OGu2-XOStV-167" style="edgeStyle=orthogonalEdgeStyle;rounded=0;orthogonalLoop=1;jettySize=auto;html=1;" parent="1" source="RqGZiLB4w0OGu2-XOStV-27" target="RqGZiLB4w0OGu2-XOStV-166" edge="1">
          <mxGeometry relative="1" as="geometry" />
        </mxCell>
        <mxCell id="RqGZiLB4w0OGu2-XOStV-169" style="edgeStyle=orthogonalEdgeStyle;rounded=0;orthogonalLoop=1;jettySize=auto;html=1;entryX=0;entryY=0.5;entryDx=0;entryDy=0;" parent="1" source="RqGZiLB4w0OGu2-XOStV-27" target="RqGZiLB4w0OGu2-XOStV-168" edge="1">
          <mxGeometry relative="1" as="geometry" />
        </mxCell>
        <mxCell id="RqGZiLB4w0OGu2-XOStV-171" style="edgeStyle=orthogonalEdgeStyle;rounded=0;orthogonalLoop=1;jettySize=auto;html=1;entryX=0;entryY=0.5;entryDx=0;entryDy=0;" parent="1" source="RqGZiLB4w0OGu2-XOStV-27" target="RqGZiLB4w0OGu2-XOStV-170" edge="1">
          <mxGeometry relative="1" as="geometry" />
        </mxCell>
        <mxCell id="RqGZiLB4w0OGu2-XOStV-173" style="edgeStyle=orthogonalEdgeStyle;rounded=0;orthogonalLoop=1;jettySize=auto;html=1;entryX=0;entryY=0.5;entryDx=0;entryDy=0;" parent="1" source="RqGZiLB4w0OGu2-XOStV-27" target="RqGZiLB4w0OGu2-XOStV-172" edge="1">
          <mxGeometry relative="1" as="geometry" />
        </mxCell>
        <mxCell id="Xnd19kY2QyQ1-wjz9Bap-17" value="" style="edgeStyle=orthogonalEdgeStyle;rounded=0;orthogonalLoop=1;jettySize=auto;html=1;" edge="1" parent="1" source="RqGZiLB4w0OGu2-XOStV-27" target="Xnd19kY2QyQ1-wjz9Bap-16">
          <mxGeometry relative="1" as="geometry" />
        </mxCell>
        <mxCell id="RqGZiLB4w0OGu2-XOStV-27" value="ResBlk" style="rounded=1;whiteSpace=wrap;html=1;fontFamily=Comic Sans MS;" parent="1" vertex="1">
          <mxGeometry x="800" y="260" width="70" height="30" as="geometry" />
        </mxCell>
        <mxCell id="RqGZiLB4w0OGu2-XOStV-29" style="edgeStyle=orthogonalEdgeStyle;rounded=0;orthogonalLoop=1;jettySize=auto;html=1;fontFamily=Comic Sans MS;" parent="1" source="RqGZiLB4w0OGu2-XOStV-28" target="RqGZiLB4w0OGu2-XOStV-27" edge="1">
          <mxGeometry relative="1" as="geometry" />
        </mxCell>
        <mxCell id="RqGZiLB4w0OGu2-XOStV-28" value="Transformer" style="rounded=1;whiteSpace=wrap;html=1;fontFamily=Comic Sans MS;" parent="1" vertex="1">
          <mxGeometry x="668" y="260" width="100" height="30" as="geometry" />
        </mxCell>
        <mxCell id="RqGZiLB4w0OGu2-XOStV-17" style="edgeStyle=orthogonalEdgeStyle;rounded=0;orthogonalLoop=1;jettySize=auto;html=1;fontFamily=Comic Sans MS;" parent="1" source="RqGZiLB4w0OGu2-XOStV-11" target="RqGZiLB4w0OGu2-XOStV-13" edge="1">
          <mxGeometry relative="1" as="geometry" />
        </mxCell>
        <mxCell id="RqGZiLB4w0OGu2-XOStV-11" value="ResBlk" style="rounded=1;whiteSpace=wrap;html=1;fontFamily=Comic Sans MS;" parent="1" vertex="1">
          <mxGeometry x="314" width="70" height="30" as="geometry" />
        </mxCell>
        <mxCell id="RqGZiLB4w0OGu2-XOStV-20" style="edgeStyle=orthogonalEdgeStyle;rounded=0;orthogonalLoop=1;jettySize=auto;html=1;entryX=0;entryY=0.5;entryDx=0;entryDy=0;fontFamily=Comic Sans MS;" parent="1" source="RqGZiLB4w0OGu2-XOStV-13" target="RqGZiLB4w0OGu2-XOStV-15" edge="1">
          <mxGeometry relative="1" as="geometry" />
        </mxCell>
        <mxCell id="RqGZiLB4w0OGu2-XOStV-38" style="edgeStyle=orthogonalEdgeStyle;rounded=0;orthogonalLoop=1;jettySize=auto;html=1;fontFamily=Comic Sans MS;" parent="1" source="RqGZiLB4w0OGu2-XOStV-13" target="RqGZiLB4w0OGu2-XOStV-36" edge="1">
          <mxGeometry relative="1" as="geometry" />
        </mxCell>
        <mxCell id="RqGZiLB4w0OGu2-XOStV-13" value="Transformer" style="rounded=1;whiteSpace=wrap;html=1;fontFamily=Comic Sans MS;" parent="1" vertex="1">
          <mxGeometry x="299" y="60" width="100" height="30" as="geometry" />
        </mxCell>
        <mxCell id="RqGZiLB4w0OGu2-XOStV-19" style="edgeStyle=orthogonalEdgeStyle;rounded=0;orthogonalLoop=1;jettySize=auto;html=1;fontFamily=Comic Sans MS;" parent="1" source="RqGZiLB4w0OGu2-XOStV-15" target="RqGZiLB4w0OGu2-XOStV-16" edge="1">
          <mxGeometry relative="1" as="geometry" />
        </mxCell>
        <mxCell id="RqGZiLB4w0OGu2-XOStV-15" value="ResBlk" style="rounded=1;whiteSpace=wrap;html=1;fontFamily=Comic Sans MS;" parent="1" vertex="1">
          <mxGeometry x="444" y="60" width="70" height="30" as="geometry" />
        </mxCell>
        <mxCell id="RqGZiLB4w0OGu2-XOStV-181" style="edgeStyle=orthogonalEdgeStyle;rounded=0;orthogonalLoop=1;jettySize=auto;html=1;entryX=0.5;entryY=0;entryDx=0;entryDy=0;curved=0;strokeColor=none;" parent="1" source="RqGZiLB4w0OGu2-XOStV-16" target="RqGZiLB4w0OGu2-XOStV-6" edge="1">
          <mxGeometry relative="1" as="geometry" />
        </mxCell>
        <mxCell id="RqGZiLB4w0OGu2-XOStV-16" value="Transformer" style="rounded=1;whiteSpace=wrap;html=1;fontFamily=Comic Sans MS;" parent="1" vertex="1">
          <mxGeometry x="429" y="120" width="100" height="30" as="geometry" />
        </mxCell>
        <mxCell id="RqGZiLB4w0OGu2-XOStV-37" style="edgeStyle=orthogonalEdgeStyle;rounded=0;orthogonalLoop=1;jettySize=auto;html=1;fontFamily=Comic Sans MS;" parent="1" source="RqGZiLB4w0OGu2-XOStV-33" target="RqGZiLB4w0OGu2-XOStV-28" edge="1">
          <mxGeometry relative="1" as="geometry" />
        </mxCell>
        <mxCell id="RqGZiLB4w0OGu2-XOStV-33" value="skip connection" style="rounded=1;whiteSpace=wrap;html=1;fontFamily=Comic Sans MS;" parent="1" vertex="1">
          <mxGeometry x="555" y="170.75" width="100" height="30" as="geometry" />
        </mxCell>
        <mxCell id="RqGZiLB4w0OGu2-XOStV-41" value="" style="edgeStyle=orthogonalEdgeStyle;rounded=0;orthogonalLoop=1;jettySize=auto;html=1;fontFamily=Comic Sans MS;" parent="1" source="RqGZiLB4w0OGu2-XOStV-36" target="RqGZiLB4w0OGu2-XOStV-33" edge="1">
          <mxGeometry relative="1" as="geometry" />
        </mxCell>
        <mxCell id="RqGZiLB4w0OGu2-XOStV-36" value="attn" style="shape=trapezoid;perimeter=trapezoidPerimeter;whiteSpace=wrap;html=1;fixedSize=1;fontFamily=Comic Sans MS;" parent="1" vertex="1">
          <mxGeometry x="309" y="170.5" width="80" height="29" as="geometry" />
        </mxCell>
        <mxCell id="RqGZiLB4w0OGu2-XOStV-86" value="" style="edgeStyle=orthogonalEdgeStyle;rounded=0;orthogonalLoop=1;jettySize=auto;html=1;" parent="1" source="RqGZiLB4w0OGu2-XOStV-43" target="RqGZiLB4w0OGu2-XOStV-85" edge="1">
          <mxGeometry relative="1" as="geometry" />
        </mxCell>
        <mxCell id="RqGZiLB4w0OGu2-XOStV-43" value="CL encoder" style="rounded=1;whiteSpace=wrap;html=1;fontFamily=Comic Sans MS;" parent="1" vertex="1">
          <mxGeometry x="10" y="58.75" width="90" height="32.5" as="geometry" />
        </mxCell>
        <mxCell id="RqGZiLB4w0OGu2-XOStV-137" value="" style="edgeStyle=orthogonalEdgeStyle;rounded=0;orthogonalLoop=1;jettySize=auto;html=1;" parent="1" source="RqGZiLB4w0OGu2-XOStV-46" target="RqGZiLB4w0OGu2-XOStV-48" edge="1">
          <mxGeometry relative="1" as="geometry" />
        </mxCell>
        <mxCell id="RqGZiLB4w0OGu2-XOStV-46" value="text encoder" style="rounded=1;whiteSpace=wrap;html=1;fontFamily=Comic Sans MS;" parent="1" vertex="1">
          <mxGeometry x="-60" y="168.75" width="90" height="32.5" as="geometry" />
        </mxCell>
        <mxCell id="RqGZiLB4w0OGu2-XOStV-180" value="" style="edgeStyle=orthogonalEdgeStyle;rounded=0;orthogonalLoop=1;jettySize=auto;html=1;" parent="1" source="RqGZiLB4w0OGu2-XOStV-48" target="RqGZiLB4w0OGu2-XOStV-138" edge="1">
          <mxGeometry relative="1" as="geometry" />
        </mxCell>
        <mxCell id="RqGZiLB4w0OGu2-XOStV-48" value="replace" style="shape=trapezoid;perimeter=trapezoidPerimeter;whiteSpace=wrap;html=1;fixedSize=1;fontFamily=Comic Sans MS;" parent="1" vertex="1">
          <mxGeometry x="80" y="170.5" width="80" height="29" as="geometry" />
        </mxCell>
        <mxCell id="RqGZiLB4w0OGu2-XOStV-54" value="&lt;font style=&quot;color: rgb(51, 51, 255);&quot;&gt;UNet&lt;/font&gt;" style="text;html=1;align=center;verticalAlign=middle;resizable=0;points=[];autosize=1;strokeColor=none;fillColor=none;fontFamily=Comic Sans MS;fontStyle=1" parent="1" vertex="1">
          <mxGeometry x="-80" y="250" width="50" height="30" as="geometry" />
        </mxCell>
        <mxCell id="RqGZiLB4w0OGu2-XOStV-80" value="" style="edgeStyle=orthogonalEdgeStyle;rounded=0;orthogonalLoop=1;jettySize=auto;html=1;" parent="1" source="RqGZiLB4w0OGu2-XOStV-79" target="RqGZiLB4w0OGu2-XOStV-11" edge="1">
          <mxGeometry relative="1" as="geometry" />
        </mxCell>
        <mxCell id="RqGZiLB4w0OGu2-XOStV-79" value="canny model" style="rounded=1;whiteSpace=wrap;html=1;fontFamily=Comic Sans MS;" parent="1" vertex="1">
          <mxGeometry x="220" y="-100" width="96" height="30" as="geometry" />
        </mxCell>
        <mxCell id="RqGZiLB4w0OGu2-XOStV-87" value="" style="edgeStyle=orthogonalEdgeStyle;rounded=0;orthogonalLoop=1;jettySize=auto;html=1;" parent="1" source="RqGZiLB4w0OGu2-XOStV-85" target="RqGZiLB4w0OGu2-XOStV-13" edge="1">
          <mxGeometry relative="1" as="geometry" />
        </mxCell>
        <mxCell id="RqGZiLB4w0OGu2-XOStV-88" value="" style="edgeStyle=orthogonalEdgeStyle;rounded=0;orthogonalLoop=1;jettySize=auto;html=1;" parent="1" source="RqGZiLB4w0OGu2-XOStV-85" target="RqGZiLB4w0OGu2-XOStV-48" edge="1">
          <mxGeometry relative="1" as="geometry" />
        </mxCell>
        <mxCell id="RqGZiLB4w0OGu2-XOStV-85" value="position encoder" style="rounded=1;whiteSpace=wrap;html=1;fontFamily=Comic Sans MS;" parent="1" vertex="1">
          <mxGeometry x="151.25" y="58.75" width="107.5" height="32.5" as="geometry" />
        </mxCell>
        <mxCell id="RqGZiLB4w0OGu2-XOStV-97" value="" style="edgeStyle=orthogonalEdgeStyle;rounded=0;orthogonalLoop=1;jettySize=auto;html=1;" parent="1" source="RqGZiLB4w0OGu2-XOStV-94" target="RqGZiLB4w0OGu2-XOStV-96" edge="1">
          <mxGeometry relative="1" as="geometry" />
        </mxCell>
        <mxCell id="RqGZiLB4w0OGu2-XOStV-94" value="fintune vllm" style="rounded=1;whiteSpace=wrap;html=1;fontFamily=Comic Sans MS;" parent="1" vertex="1">
          <mxGeometry x="301" y="-240" width="96" height="30" as="geometry" />
        </mxCell>
        <mxCell id="RqGZiLB4w0OGu2-XOStV-116" value="" style="edgeStyle=orthogonalEdgeStyle;rounded=0;orthogonalLoop=1;jettySize=auto;html=1;entryX=0.463;entryY=-0.064;entryDx=0;entryDy=0;entryPerimeter=0;" parent="1" source="RqGZiLB4w0OGu2-XOStV-96" target="RqGZiLB4w0OGu2-XOStV-79" edge="1">
          <mxGeometry relative="1" as="geometry" />
        </mxCell>
        <mxCell id="RqGZiLB4w0OGu2-XOStV-96" value="pillow" style="rounded=1;whiteSpace=wrap;html=1;fontFamily=Comic Sans MS;" parent="1" vertex="1">
          <mxGeometry x="301" y="-175" width="96" height="30" as="geometry" />
        </mxCell>
        <mxCell id="RqGZiLB4w0OGu2-XOStV-115" value="" style="edgeStyle=orthogonalEdgeStyle;rounded=0;orthogonalLoop=1;jettySize=auto;html=1;" parent="1" source="RqGZiLB4w0OGu2-XOStV-114" target="RqGZiLB4w0OGu2-XOStV-11" edge="1">
          <mxGeometry relative="1" as="geometry" />
        </mxCell>
        <mxCell id="RqGZiLB4w0OGu2-XOStV-114" value="skeleton model" style="rounded=1;whiteSpace=wrap;html=1;fontFamily=Comic Sans MS;" parent="1" vertex="1">
          <mxGeometry x="380" y="-100" width="96" height="30" as="geometry" />
        </mxCell>
        <mxCell id="RqGZiLB4w0OGu2-XOStV-117" style="edgeStyle=orthogonalEdgeStyle;rounded=0;orthogonalLoop=1;jettySize=auto;html=1;entryX=0.546;entryY=-0.021;entryDx=0;entryDy=0;entryPerimeter=0;" parent="1" source="RqGZiLB4w0OGu2-XOStV-96" target="RqGZiLB4w0OGu2-XOStV-114" edge="1">
          <mxGeometry relative="1" as="geometry" />
        </mxCell>
        <mxCell id="RqGZiLB4w0OGu2-XOStV-121" value="mask" style="text;html=1;align=center;verticalAlign=middle;resizable=0;points=[];autosize=1;strokeColor=none;fillColor=none;fontFamily=Comic Sans MS;" parent="1" vertex="1">
          <mxGeometry x="180" y="28.75" width="50" height="30" as="geometry" />
        </mxCell>
        <mxCell id="RqGZiLB4w0OGu2-XOStV-122" value="keypoint" style="text;html=1;align=center;verticalAlign=middle;resizable=0;points=[];autosize=1;strokeColor=none;fillColor=none;fontFamily=Comic Sans MS;" parent="1" vertex="1">
          <mxGeometry x="170" y="10" width="70" height="30" as="geometry" />
        </mxCell>
        <mxCell id="RqGZiLB4w0OGu2-XOStV-123" value="bbox coordinate" style="text;html=1;align=center;verticalAlign=middle;resizable=0;points=[];autosize=1;strokeColor=none;fillColor=none;fontFamily=Comic Sans MS;" parent="1" vertex="1">
          <mxGeometry x="151.25" y="-10" width="110" height="30" as="geometry" />
        </mxCell>
        <mxCell id="RqGZiLB4w0OGu2-XOStV-124" value="special token" style="text;html=1;align=center;verticalAlign=middle;resizable=0;points=[];autosize=1;strokeColor=none;fillColor=none;fontFamily=Comic Sans MS;" parent="1" vertex="1">
          <mxGeometry x="156.25" y="-30" width="100" height="30" as="geometry" />
        </mxCell>
        <mxCell id="RqGZiLB4w0OGu2-XOStV-135" value="" style="edgeStyle=orthogonalEdgeStyle;rounded=0;orthogonalLoop=1;jettySize=auto;html=1;" parent="1" source="RqGZiLB4w0OGu2-XOStV-132" target="RqGZiLB4w0OGu2-XOStV-2" edge="1">
          <mxGeometry relative="1" as="geometry" />
        </mxCell>
        <mxCell id="RqGZiLB4w0OGu2-XOStV-154" style="edgeStyle=orthogonalEdgeStyle;rounded=0;orthogonalLoop=1;jettySize=auto;html=1;" parent="1" source="RqGZiLB4w0OGu2-XOStV-132" target="RqGZiLB4w0OGu2-XOStV-153" edge="1">
          <mxGeometry relative="1" as="geometry" />
        </mxCell>
        <mxCell id="RqGZiLB4w0OGu2-XOStV-132" value="attn" style="shape=trapezoid;perimeter=trapezoidPerimeter;whiteSpace=wrap;html=1;fixedSize=1;fontFamily=Comic Sans MS;" parent="1" vertex="1">
          <mxGeometry x="192" y="331" width="80" height="29" as="geometry" />
        </mxCell>
        <mxCell id="RqGZiLB4w0OGu2-XOStV-175" style="edgeStyle=orthogonalEdgeStyle;rounded=0;orthogonalLoop=1;jettySize=auto;html=1;entryX=0.5;entryY=0;entryDx=0;entryDy=0;" parent="1" source="RqGZiLB4w0OGu2-XOStV-138" target="RqGZiLB4w0OGu2-XOStV-174" edge="1">
          <mxGeometry relative="1" as="geometry" />
        </mxCell>
        <mxCell id="RqGZiLB4w0OGu2-XOStV-177" style="edgeStyle=orthogonalEdgeStyle;rounded=0;orthogonalLoop=1;jettySize=auto;html=1;entryX=0.5;entryY=0;entryDx=0;entryDy=0;" parent="1" source="RqGZiLB4w0OGu2-XOStV-138" target="RqGZiLB4w0OGu2-XOStV-176" edge="1">
          <mxGeometry relative="1" as="geometry" />
        </mxCell>
        <mxCell id="RqGZiLB4w0OGu2-XOStV-138" value="attn map" style="shape=trapezoid;perimeter=trapezoidPerimeter;whiteSpace=wrap;html=1;fixedSize=1;fontFamily=Comic Sans MS;" parent="1" vertex="1">
          <mxGeometry x="192" y="171.25" width="80" height="29" as="geometry" />
        </mxCell>
        <mxCell id="RqGZiLB4w0OGu2-XOStV-148" value="" style="edgeStyle=orthogonalEdgeStyle;rounded=0;orthogonalLoop=1;jettySize=auto;html=1;" parent="1" source="RqGZiLB4w0OGu2-XOStV-147" target="RqGZiLB4w0OGu2-XOStV-1" edge="1">
          <mxGeometry relative="1" as="geometry" />
        </mxCell>
        <mxCell id="RqGZiLB4w0OGu2-XOStV-147" value="channel concat" style="rounded=1;whiteSpace=wrap;html=1;fontFamily=Comic Sans MS;" parent="1" vertex="1">
          <mxGeometry x="-90" y="331" width="120" height="30" as="geometry" />
        </mxCell>
        <mxCell id="RqGZiLB4w0OGu2-XOStV-150" value="&lt;span style=&quot;font-family: &amp;quot;Comic Sans MS&amp;quot;;&quot;&gt;reconstruction&lt;/span&gt;&lt;div style=&quot;font-family: &amp;quot;Comic Sans MS&amp;quot;;&quot;&gt;loss&lt;/div&gt;" style="ellipse;whiteSpace=wrap;html=1;" parent="1" vertex="1">
          <mxGeometry x="960" y="150" width="120" height="40" as="geometry" />
        </mxCell>
        <mxCell id="RqGZiLB4w0OGu2-XOStV-153" value="&lt;span style=&quot;font-family: &amp;quot;Comic Sans MS&amp;quot;;&quot;&gt;attn map&lt;/span&gt;&lt;div style=&quot;font-family: &amp;quot;Comic Sans MS&amp;quot;;&quot;&gt;loss&lt;/div&gt;&lt;div style=&quot;font-family: &amp;quot;Comic Sans MS&amp;quot;;&quot;&gt;strength&lt;/div&gt;" style="ellipse;whiteSpace=wrap;html=1;" parent="1" vertex="1">
          <mxGeometry x="177" y="440" width="110" height="60" as="geometry" />
        </mxCell>
        <mxCell id="RqGZiLB4w0OGu2-XOStV-155" value="" style="rounded=0;whiteSpace=wrap;html=1;sketch=1;curveFitting=1;jiggle=2;fillColor=#eeeeee;strokeColor=#36393d;fontFamily=Comic Sans MS;" parent="1" vertex="1">
          <mxGeometry x="-770" y="767" width="600" height="310" as="geometry" />
        </mxCell>
        <mxCell id="RqGZiLB4w0OGu2-XOStV-158" value="&lt;font style=&quot;color: rgb(51, 51, 255);&quot;&gt;Inference&lt;/font&gt;" style="text;html=1;align=center;verticalAlign=middle;resizable=0;points=[];autosize=1;strokeColor=none;fillColor=none;fontFamily=Comic Sans MS;fontStyle=1" parent="1" vertex="1">
          <mxGeometry x="-753" y="777" width="80" height="30" as="geometry" />
        </mxCell>
        <mxCell id="RqGZiLB4w0OGu2-XOStV-163" value="" style="edgeStyle=orthogonalEdgeStyle;rounded=0;orthogonalLoop=1;jettySize=auto;html=1;" parent="1" source="RqGZiLB4w0OGu2-XOStV-159" target="RqGZiLB4w0OGu2-XOStV-161" edge="1">
          <mxGeometry relative="1" as="geometry" />
        </mxCell>
        <mxCell id="RqGZiLB4w0OGu2-XOStV-159" value="Diffusion model" style="rounded=1;whiteSpace=wrap;html=1;fontFamily=Comic Sans MS;" parent="1" vertex="1">
          <mxGeometry x="-603" y="969" width="80" height="50" as="geometry" />
        </mxCell>
        <mxCell id="RqGZiLB4w0OGu2-XOStV-161" value="cfg" style="rounded=1;whiteSpace=wrap;html=1;fontFamily=Comic Sans MS;" parent="1" vertex="1">
          <mxGeometry x="-483" y="979" width="50" height="30" as="geometry" />
        </mxCell>
        <mxCell id="RqGZiLB4w0OGu2-XOStV-164" value="&lt;font face=&quot;Comic Sans MS&quot;&gt;bbox + ocr embedding&lt;/font&gt;&lt;div&gt;&lt;font face=&quot;Comic Sans MS&quot;&gt;loss&lt;/font&gt;&lt;/div&gt;" style="ellipse;whiteSpace=wrap;html=1;" parent="1" vertex="1">
          <mxGeometry x="950" y="210" width="180" height="50" as="geometry" />
        </mxCell>
        <mxCell id="RqGZiLB4w0OGu2-XOStV-166" value="&lt;div&gt;&lt;font face=&quot;Comic Sans MS&quot;&gt;cl bbox +&lt;/font&gt;&lt;/div&gt;&lt;font face=&quot;Comic Sans MS&quot;&gt;cl encoder loss&lt;/font&gt;" style="ellipse;whiteSpace=wrap;html=1;" parent="1" vertex="1">
          <mxGeometry x="950" y="280" width="180" height="50" as="geometry" />
        </mxCell>
        <mxCell id="RqGZiLB4w0OGu2-XOStV-168" value="&lt;div&gt;&lt;font face=&quot;Comic Sans MS&quot;&gt;cl bbox +&lt;/font&gt;&lt;/div&gt;&lt;font face=&quot;Comic Sans MS&quot;&gt;contrastive loss&lt;/font&gt;" style="ellipse;whiteSpace=wrap;html=1;" parent="1" vertex="1">
          <mxGeometry x="950" y="350" width="180" height="50" as="geometry" />
        </mxCell>
        <mxCell id="RqGZiLB4w0OGu2-XOStV-170" value="&lt;div&gt;&lt;font face=&quot;Comic Sans MS&quot;&gt;hard negative&lt;/font&gt;&lt;/div&gt;&lt;div&gt;&lt;font face=&quot;Comic Sans MS&quot;&gt;loss&lt;/font&gt;&lt;/div&gt;" style="ellipse;whiteSpace=wrap;html=1;" parent="1" vertex="1">
          <mxGeometry x="950" y="420" width="180" height="50" as="geometry" />
        </mxCell>
        <mxCell id="RqGZiLB4w0OGu2-XOStV-172" value="&lt;font face=&quot;Comic Sans MS&quot;&gt;foreground&lt;/font&gt;&lt;div&gt;&lt;font face=&quot;Comic Sans MS&quot;&gt;background loss&lt;/font&gt;&lt;/div&gt;" style="ellipse;whiteSpace=wrap;html=1;" parent="1" vertex="1">
          <mxGeometry x="950" y="90" width="130" height="40" as="geometry" />
        </mxCell>
        <mxCell id="RqGZiLB4w0OGu2-XOStV-178" value="" style="edgeStyle=orthogonalEdgeStyle;rounded=0;orthogonalLoop=1;jettySize=auto;html=1;" parent="1" source="RqGZiLB4w0OGu2-XOStV-174" target="RqGZiLB4w0OGu2-XOStV-132" edge="1">
          <mxGeometry relative="1" as="geometry" />
        </mxCell>
        <mxCell id="RqGZiLB4w0OGu2-XOStV-174" value="local" style="rounded=1;whiteSpace=wrap;html=1;fontFamily=Comic Sans MS;" parent="1" vertex="1">
          <mxGeometry x="150" y="252" width="70" height="30" as="geometry" />
        </mxCell>
        <mxCell id="RqGZiLB4w0OGu2-XOStV-179" value="" style="edgeStyle=orthogonalEdgeStyle;rounded=0;orthogonalLoop=1;jettySize=auto;html=1;" parent="1" source="RqGZiLB4w0OGu2-XOStV-176" target="RqGZiLB4w0OGu2-XOStV-132" edge="1">
          <mxGeometry relative="1" as="geometry" />
        </mxCell>
        <mxCell id="RqGZiLB4w0OGu2-XOStV-176" value="global" style="rounded=1;whiteSpace=wrap;html=1;fontFamily=Comic Sans MS;" parent="1" vertex="1">
          <mxGeometry x="244" y="252" width="70" height="30" as="geometry" />
        </mxCell>
        <mxCell id="RqGZiLB4w0OGu2-XOStV-186" value="" style="edgeStyle=orthogonalEdgeStyle;rounded=0;orthogonalLoop=1;jettySize=auto;html=1;" parent="1" source="RqGZiLB4w0OGu2-XOStV-184" target="RqGZiLB4w0OGu2-XOStV-185" edge="1">
          <mxGeometry relative="1" as="geometry" />
        </mxCell>
        <mxCell id="RqGZiLB4w0OGu2-XOStV-184" value="ResBlk" style="rounded=1;whiteSpace=wrap;html=1;fontFamily=Comic Sans MS;" parent="1" vertex="1">
          <mxGeometry x="314" y="570" width="70" height="30" as="geometry" />
        </mxCell>
        <mxCell id="RqGZiLB4w0OGu2-XOStV-191" style="edgeStyle=orthogonalEdgeStyle;rounded=0;orthogonalLoop=1;jettySize=auto;html=1;entryX=1;entryY=0.5;entryDx=0;entryDy=0;exitX=1;exitY=0.5;exitDx=0;exitDy=0;" parent="1" source="RqGZiLB4w0OGu2-XOStV-185" target="RqGZiLB4w0OGu2-XOStV-187" edge="1">
          <mxGeometry relative="1" as="geometry">
            <Array as="points">
              <mxPoint x="550" y="585" />
              <mxPoint x="550" y="510" />
            </Array>
          </mxGeometry>
        </mxCell>
        <mxCell id="RqGZiLB4w0OGu2-XOStV-185" value="Transformer" style="rounded=1;whiteSpace=wrap;html=1;fontFamily=Comic Sans MS;" parent="1" vertex="1">
          <mxGeometry x="424" y="570" width="100" height="30" as="geometry" />
        </mxCell>
        <mxCell id="RqGZiLB4w0OGu2-XOStV-187" value="&lt;font face=&quot;Comic Sans MS&quot;&gt;no character condition&lt;/font&gt;&lt;div&gt;&lt;font face=&quot;Comic Sans MS&quot;&gt;background&lt;/font&gt;&lt;/div&gt;&lt;div&gt;&lt;font face=&quot;Comic Sans MS&quot;&gt;avg pooling loss&lt;/font&gt;&lt;/div&gt;" style="ellipse;whiteSpace=wrap;html=1;" parent="1" vertex="1">
          <mxGeometry x="350" y="480" width="174" height="60" as="geometry" />
        </mxCell>
        <mxCell id="RqGZiLB4w0OGu2-XOStV-192" value="" style="rounded=0;whiteSpace=wrap;html=1;sketch=1;curveFitting=1;jiggle=2;fillColor=#eeeeee;strokeColor=#36393d;fontFamily=Comic Sans MS;" parent="1" vertex="1">
          <mxGeometry x="980" y="767" width="600" height="310" as="geometry" />
        </mxCell>
        <mxCell id="RqGZiLB4w0OGu2-XOStV-194" value="&lt;font color=&quot;#3333ff&quot;&gt;fintune&lt;/font&gt;" style="text;html=1;align=center;verticalAlign=middle;resizable=0;points=[];autosize=1;strokeColor=none;fillColor=none;fontFamily=Comic Sans MS;fontStyle=1" parent="1" vertex="1">
          <mxGeometry x="1000" y="777" width="60" height="30" as="geometry" />
        </mxCell>
        <mxCell id="RqGZiLB4w0OGu2-XOStV-198" value="" style="rounded=0;whiteSpace=wrap;html=1;sketch=1;curveFitting=1;jiggle=2;fillColor=#eeeeee;strokeColor=#36393d;fontFamily=Comic Sans MS;" parent="1" vertex="1">
          <mxGeometry x="-740" y="-685" width="600" height="310" as="geometry" />
        </mxCell>
        <mxCell id="RqGZiLB4w0OGu2-XOStV-199" value="&lt;font style=&quot;color: rgb(51, 51, 255);&quot;&gt;canny model&lt;/font&gt;" style="text;html=1;align=center;verticalAlign=middle;resizable=0;points=[];autosize=1;strokeColor=none;fillColor=none;fontFamily=Comic Sans MS;fontStyle=1" parent="1" vertex="1">
          <mxGeometry x="-730" y="-677.5" width="90" height="30" as="geometry" />
        </mxCell>
        <mxCell id="RqGZiLB4w0OGu2-XOStV-203" style="edgeStyle=orthogonalEdgeStyle;rounded=0;orthogonalLoop=1;jettySize=auto;html=1;entryX=0.5;entryY=0;entryDx=0;entryDy=0;" parent="1" source="RqGZiLB4w0OGu2-XOStV-200" target="RqGZiLB4w0OGu2-XOStV-202" edge="1">
          <mxGeometry relative="1" as="geometry" />
        </mxCell>
        <mxCell id="RqGZiLB4w0OGu2-XOStV-204" style="edgeStyle=orthogonalEdgeStyle;rounded=0;orthogonalLoop=1;jettySize=auto;html=1;" parent="1" source="RqGZiLB4w0OGu2-XOStV-200" target="RqGZiLB4w0OGu2-XOStV-201" edge="1">
          <mxGeometry relative="1" as="geometry" />
        </mxCell>
        <mxCell id="RqGZiLB4w0OGu2-XOStV-200" value="canny model" style="rounded=1;whiteSpace=wrap;html=1;fontFamily=Comic Sans MS;" parent="1" vertex="1">
          <mxGeometry x="-510" y="-645" width="96" height="30" as="geometry" />
        </mxCell>
        <mxCell id="RqGZiLB4w0OGu2-XOStV-201" value="vae enhance" style="rounded=1;whiteSpace=wrap;html=1;fontFamily=Comic Sans MS;" parent="1" vertex="1">
          <mxGeometry x="-414" y="-575" width="96" height="30" as="geometry" />
        </mxCell>
        <mxCell id="RqGZiLB4w0OGu2-XOStV-202" value="controlnet" style="rounded=1;whiteSpace=wrap;html=1;fontFamily=Comic Sans MS;" parent="1" vertex="1">
          <mxGeometry x="-600" y="-575" width="96" height="30" as="geometry" />
        </mxCell>
        <mxCell id="Xnd19kY2QyQ1-wjz9Bap-2" value="w&amp;amp;w/o glyph condition" style="text;html=1;align=center;verticalAlign=middle;resizable=0;points=[];autosize=1;strokeColor=none;fillColor=none;fontFamily=Comic Sans MS;" vertex="1" parent="1">
          <mxGeometry x="-417" y="959" width="150" height="30" as="geometry" />
        </mxCell>
        <mxCell id="Xnd19kY2QyQ1-wjz9Bap-3" value="w&amp;amp;w/o position" style="text;html=1;align=center;verticalAlign=middle;resizable=0;points=[];autosize=1;strokeColor=none;fillColor=none;fontFamily=Comic Sans MS;" vertex="1" parent="1">
          <mxGeometry x="-417" y="929" width="110" height="30" as="geometry" />
        </mxCell>
        <mxCell id="Xnd19kY2QyQ1-wjz9Bap-4" value="w&amp;amp;w/o hard negative character" style="text;html=1;align=center;verticalAlign=middle;resizable=0;points=[];autosize=1;strokeColor=none;fillColor=none;fontFamily=Comic Sans MS;" vertex="1" parent="1">
          <mxGeometry x="-417" y="989" width="200" height="30" as="geometry" />
        </mxCell>
        <mxCell id="Xnd19kY2QyQ1-wjz9Bap-10" value="" style="edgeStyle=orthogonalEdgeStyle;rounded=0;orthogonalLoop=1;jettySize=auto;html=1;" edge="1" parent="1" source="Xnd19kY2QyQ1-wjz9Bap-5" target="Xnd19kY2QyQ1-wjz9Bap-8">
          <mxGeometry relative="1" as="geometry" />
        </mxCell>
        <mxCell id="Xnd19kY2QyQ1-wjz9Bap-14" style="edgeStyle=orthogonalEdgeStyle;rounded=0;orthogonalLoop=1;jettySize=auto;html=1;" edge="1" parent="1" source="Xnd19kY2QyQ1-wjz9Bap-5" target="Xnd19kY2QyQ1-wjz9Bap-12">
          <mxGeometry relative="1" as="geometry" />
        </mxCell>
        <mxCell id="Xnd19kY2QyQ1-wjz9Bap-5" value="Diffusion model" style="rounded=1;whiteSpace=wrap;html=1;fontFamily=Comic Sans MS;" vertex="1" parent="1">
          <mxGeometry x="-603" y="807" width="80" height="50" as="geometry" />
        </mxCell>
        <mxCell id="Xnd19kY2QyQ1-wjz9Bap-6" value="w&amp;amp;w/o glyph condition" style="text;html=1;align=center;verticalAlign=middle;resizable=0;points=[];autosize=1;strokeColor=none;fillColor=none;fontFamily=Comic Sans MS;" vertex="1" parent="1">
          <mxGeometry x="-523" y="817" width="150" height="30" as="geometry" />
        </mxCell>
        <mxCell id="Xnd19kY2QyQ1-wjz9Bap-11" value="" style="edgeStyle=orthogonalEdgeStyle;rounded=0;orthogonalLoop=1;jettySize=auto;html=1;" edge="1" parent="1" source="Xnd19kY2QyQ1-wjz9Bap-8" target="RqGZiLB4w0OGu2-XOStV-159">
          <mxGeometry relative="1" as="geometry" />
        </mxCell>
        <mxCell id="Xnd19kY2QyQ1-wjz9Bap-8" value="attn" style="shape=trapezoid;perimeter=trapezoidPerimeter;whiteSpace=wrap;html=1;fixedSize=1;fontFamily=Comic Sans MS;" vertex="1" parent="1">
          <mxGeometry x="-603" y="900" width="80" height="29" as="geometry" />
        </mxCell>
        <mxCell id="Xnd19kY2QyQ1-wjz9Bap-9" style="edgeStyle=orthogonalEdgeStyle;rounded=0;orthogonalLoop=1;jettySize=auto;html=1;entryX=0.5;entryY=0;entryDx=0;entryDy=0;" edge="1" parent="1">
          <mxGeometry relative="1" as="geometry">
            <mxPoint x="60" y="480" as="sourcePoint" />
            <mxPoint x="60" y="480" as="targetPoint" />
          </mxGeometry>
        </mxCell>
        <mxCell id="Xnd19kY2QyQ1-wjz9Bap-13" value="" style="edgeStyle=orthogonalEdgeStyle;rounded=0;orthogonalLoop=1;jettySize=auto;html=1;" edge="1" parent="1" source="Xnd19kY2QyQ1-wjz9Bap-12" target="RqGZiLB4w0OGu2-XOStV-159">
          <mxGeometry relative="1" as="geometry" />
        </mxCell>
        <mxCell id="Xnd19kY2QyQ1-wjz9Bap-12" value="CL encoder" style="rounded=1;whiteSpace=wrap;html=1;fontFamily=Comic Sans MS;" vertex="1" parent="1">
          <mxGeometry x="-733" y="978" width="90" height="32.5" as="geometry" />
        </mxCell>
        <mxCell id="Xnd19kY2QyQ1-wjz9Bap-15" value="style&lt;div&gt;embedding&lt;/div&gt;" style="text;html=1;align=center;verticalAlign=middle;resizable=0;points=[];autosize=1;strokeColor=none;fillColor=none;fontFamily=Comic Sans MS;" vertex="1" parent="1">
          <mxGeometry x="-763" y="882" width="80" height="40" as="geometry" />
        </mxCell>
        <mxCell id="Xnd19kY2QyQ1-wjz9Bap-16" value="vae&lt;div&gt;decoder&lt;/div&gt;" style="rounded=1;whiteSpace=wrap;html=1;fontFamily=Comic Sans MS;" vertex="1" parent="1">
          <mxGeometry x="800" y="165.13" width="70" height="41.25" as="geometry" />
        </mxCell>
        <mxCell id="Xnd19kY2QyQ1-wjz9Bap-20" value="" style="edgeStyle=orthogonalEdgeStyle;rounded=0;orthogonalLoop=1;jettySize=auto;html=1;" edge="1" parent="1" source="Xnd19kY2QyQ1-wjz9Bap-19" target="RqGZiLB4w0OGu2-XOStV-147">
          <mxGeometry relative="1" as="geometry" />
        </mxCell>
        <mxCell id="Xnd19kY2QyQ1-wjz9Bap-19" value="vae&lt;div&gt;encoder&lt;/div&gt;" style="rounded=1;whiteSpace=wrap;html=1;fontFamily=Comic Sans MS;" vertex="1" parent="1">
          <mxGeometry x="-231" y="325.38" width="70" height="41.25" as="geometry" />
        </mxCell>
        <mxCell id="Xnd19kY2QyQ1-wjz9Bap-21" value="" style="group" vertex="1" connectable="0" parent="1">
          <mxGeometry x="1000" y="-690" width="530" height="300" as="geometry" />
        </mxCell>
        <mxCell id="RqGZiLB4w0OGu2-XOStV-55" value="" style="rounded=0;whiteSpace=wrap;html=1;sketch=1;curveFitting=1;jiggle=2;fillColor=#eeeeee;strokeColor=#36393d;fontFamily=Comic Sans MS;" parent="Xnd19kY2QyQ1-wjz9Bap-21" vertex="1">
          <mxGeometry width="530" height="300" as="geometry" />
        </mxCell>
        <mxCell id="RqGZiLB4w0OGu2-XOStV-56" value="&lt;font style=&quot;color: rgb(51, 51, 255);&quot;&gt;CL encoder&lt;/font&gt;" style="text;html=1;align=center;verticalAlign=middle;resizable=0;points=[];autosize=1;strokeColor=none;fillColor=none;fontFamily=Comic Sans MS;fontStyle=1" parent="Xnd19kY2QyQ1-wjz9Bap-21" vertex="1">
          <mxGeometry x="10" y="10" width="90" height="30" as="geometry" />
        </mxCell>
        <mxCell id="RqGZiLB4w0OGu2-XOStV-100" value="" style="edgeStyle=orthogonalEdgeStyle;rounded=0;orthogonalLoop=1;jettySize=auto;html=1;" parent="Xnd19kY2QyQ1-wjz9Bap-21" source="RqGZiLB4w0OGu2-XOStV-58" target="RqGZiLB4w0OGu2-XOStV-99" edge="1">
          <mxGeometry relative="1" as="geometry" />
        </mxCell>
        <mxCell id="RqGZiLB4w0OGu2-XOStV-58" value="contrastive&lt;div&gt;learning&lt;/div&gt;" style="ellipse;whiteSpace=wrap;html=1;aspect=fixed;fontFamily=Comic Sans MS;" parent="Xnd19kY2QyQ1-wjz9Bap-21" vertex="1">
          <mxGeometry x="225" y="190" width="80" height="80" as="geometry" />
        </mxCell>
        <mxCell id="RqGZiLB4w0OGu2-XOStV-60" value="" style="edgeStyle=orthogonalEdgeStyle;rounded=0;orthogonalLoop=1;jettySize=auto;html=1;fontFamily=Comic Sans MS;" parent="Xnd19kY2QyQ1-wjz9Bap-21" source="RqGZiLB4w0OGu2-XOStV-59" target="RqGZiLB4w0OGu2-XOStV-58" edge="1">
          <mxGeometry relative="1" as="geometry" />
        </mxCell>
        <mxCell id="RqGZiLB4w0OGu2-XOStV-59" value="visual encoder" style="rounded=1;whiteSpace=wrap;html=1;fontFamily=Comic Sans MS;" parent="Xnd19kY2QyQ1-wjz9Bap-21" vertex="1">
          <mxGeometry x="215" y="40" width="100" height="30" as="geometry" />
        </mxCell>
        <mxCell id="RqGZiLB4w0OGu2-XOStV-64" value="" style="edgeStyle=orthogonalEdgeStyle;rounded=0;orthogonalLoop=1;jettySize=auto;html=1;fontFamily=Comic Sans MS;" parent="Xnd19kY2QyQ1-wjz9Bap-21" source="RqGZiLB4w0OGu2-XOStV-63" target="RqGZiLB4w0OGu2-XOStV-58" edge="1">
          <mxGeometry relative="1" as="geometry" />
        </mxCell>
        <mxCell id="RqGZiLB4w0OGu2-XOStV-63" value="text encoder" style="rounded=1;whiteSpace=wrap;html=1;fontFamily=Comic Sans MS;" parent="Xnd19kY2QyQ1-wjz9Bap-21" vertex="1">
          <mxGeometry x="40" y="215" width="100" height="30" as="geometry" />
        </mxCell>
        <mxCell id="RqGZiLB4w0OGu2-XOStV-78" style="edgeStyle=orthogonalEdgeStyle;rounded=0;orthogonalLoop=1;jettySize=auto;html=1;entryX=0.5;entryY=0;entryDx=0;entryDy=0;exitX=0.5;exitY=0;exitDx=0;exitDy=0;" parent="Xnd19kY2QyQ1-wjz9Bap-21" source="RqGZiLB4w0OGu2-XOStV-65" target="RqGZiLB4w0OGu2-XOStV-58" edge="1">
          <mxGeometry relative="1" as="geometry" />
        </mxCell>
        <mxCell id="RqGZiLB4w0OGu2-XOStV-65" value="embedding" style="shape=trapezoid;perimeter=trapezoidPerimeter;whiteSpace=wrap;html=1;fixedSize=1;fontFamily=Comic Sans MS;direction=south;" parent="Xnd19kY2QyQ1-wjz9Bap-21" vertex="1">
          <mxGeometry x="160" y="110" width="80" height="60" as="geometry" />
        </mxCell>
        <mxCell id="RqGZiLB4w0OGu2-XOStV-67" value="color id" style="text;html=1;align=center;verticalAlign=middle;resizable=0;points=[];autosize=1;strokeColor=none;fillColor=none;fontFamily=Comic Sans MS;" parent="Xnd19kY2QyQ1-wjz9Bap-21" vertex="1">
          <mxGeometry x="90" y="165" width="70" height="30" as="geometry" />
        </mxCell>
        <mxCell id="RqGZiLB4w0OGu2-XOStV-68" value="font id" style="text;html=1;align=center;verticalAlign=middle;resizable=0;points=[];autosize=1;strokeColor=none;fillColor=none;fontFamily=Comic Sans MS;" parent="Xnd19kY2QyQ1-wjz9Bap-21" vertex="1">
          <mxGeometry x="95" y="110" width="60" height="30" as="geometry" />
        </mxCell>
        <mxCell id="RqGZiLB4w0OGu2-XOStV-81" value="style" style="text;html=1;align=center;verticalAlign=middle;resizable=0;points=[];autosize=1;strokeColor=none;fillColor=none;fontFamily=Comic Sans MS;" parent="Xnd19kY2QyQ1-wjz9Bap-21" vertex="1">
          <mxGeometry x="100" y="147.5" width="50" height="30" as="geometry" />
        </mxCell>
        <mxCell id="RqGZiLB4w0OGu2-XOStV-91" value="stroke id" style="text;html=1;align=center;verticalAlign=middle;resizable=0;points=[];autosize=1;strokeColor=none;fillColor=none;fontFamily=Comic Sans MS;" parent="Xnd19kY2QyQ1-wjz9Bap-21" vertex="1">
          <mxGeometry x="90" y="130" width="70" height="30" as="geometry" />
        </mxCell>
        <mxCell id="RqGZiLB4w0OGu2-XOStV-102" style="edgeStyle=orthogonalEdgeStyle;rounded=0;orthogonalLoop=1;jettySize=auto;html=1;entryX=0.5;entryY=1;entryDx=0;entryDy=0;" parent="Xnd19kY2QyQ1-wjz9Bap-21" source="RqGZiLB4w0OGu2-XOStV-99" target="RqGZiLB4w0OGu2-XOStV-142" edge="1">
          <mxGeometry relative="1" as="geometry">
            <mxPoint x="365" y="175" as="targetPoint" />
          </mxGeometry>
        </mxCell>
        <mxCell id="RqGZiLB4w0OGu2-XOStV-144" style="edgeStyle=orthogonalEdgeStyle;rounded=0;orthogonalLoop=1;jettySize=auto;html=1;entryX=0.5;entryY=1;entryDx=0;entryDy=0;" parent="Xnd19kY2QyQ1-wjz9Bap-21" source="RqGZiLB4w0OGu2-XOStV-99" target="RqGZiLB4w0OGu2-XOStV-143" edge="1">
          <mxGeometry relative="1" as="geometry" />
        </mxCell>
        <mxCell id="RqGZiLB4w0OGu2-XOStV-99" value="loss func" style="rounded=1;whiteSpace=wrap;html=1;fontFamily=Comic Sans MS;" parent="Xnd19kY2QyQ1-wjz9Bap-21" vertex="1">
          <mxGeometry x="361" y="215" width="100" height="30" as="geometry" />
        </mxCell>
        <mxCell id="RqGZiLB4w0OGu2-XOStV-103" value="font id" style="text;html=1;align=center;verticalAlign=middle;resizable=0;points=[];autosize=1;strokeColor=none;fillColor=none;fontFamily=Comic Sans MS;" parent="Xnd19kY2QyQ1-wjz9Bap-21" vertex="1">
          <mxGeometry x="335" y="97" width="60" height="30" as="geometry" />
        </mxCell>
        <mxCell id="RqGZiLB4w0OGu2-XOStV-108" value="stroke id" style="text;html=1;align=center;verticalAlign=middle;resizable=0;points=[];autosize=1;strokeColor=none;fillColor=none;fontFamily=Comic Sans MS;" parent="Xnd19kY2QyQ1-wjz9Bap-21" vertex="1">
          <mxGeometry x="330" y="57" width="70" height="30" as="geometry" />
        </mxCell>
        <mxCell id="RqGZiLB4w0OGu2-XOStV-112" value="color id" style="text;html=1;align=center;verticalAlign=middle;resizable=0;points=[];autosize=1;strokeColor=none;fillColor=none;fontFamily=Comic Sans MS;" parent="Xnd19kY2QyQ1-wjz9Bap-21" vertex="1">
          <mxGeometry x="330" y="77" width="70" height="30" as="geometry" />
        </mxCell>
        <mxCell id="RqGZiLB4w0OGu2-XOStV-120" value="style" style="text;html=1;align=center;verticalAlign=middle;resizable=0;points=[];autosize=1;strokeColor=none;fillColor=none;fontFamily=Comic Sans MS;" parent="Xnd19kY2QyQ1-wjz9Bap-21" vertex="1">
          <mxGeometry x="440" y="77" width="50" height="30" as="geometry" />
        </mxCell>
        <mxCell id="RqGZiLB4w0OGu2-XOStV-131" value="special token" style="text;html=1;align=center;verticalAlign=middle;resizable=0;points=[];autosize=1;strokeColor=none;fillColor=none;fontFamily=Comic Sans MS;" parent="Xnd19kY2QyQ1-wjz9Bap-21" vertex="1">
          <mxGeometry x="60" y="90" width="100" height="30" as="geometry" />
        </mxCell>
        <mxCell id="RqGZiLB4w0OGu2-XOStV-142" value="ce loss" style="ellipse;whiteSpace=wrap;html=1;aspect=fixed;fontFamily=Comic Sans MS;" parent="Xnd19kY2QyQ1-wjz9Bap-21" vertex="1">
          <mxGeometry x="340" y="125" width="50" height="50" as="geometry" />
        </mxCell>
        <mxCell id="RqGZiLB4w0OGu2-XOStV-143" value="style&amp;nbsp;&lt;div&gt;extractor&lt;/div&gt;" style="ellipse;whiteSpace=wrap;html=1;aspect=fixed;fontFamily=Comic Sans MS;" parent="Xnd19kY2QyQ1-wjz9Bap-21" vertex="1">
          <mxGeometry x="430" y="107.5" width="70" height="70" as="geometry" />
        </mxCell>
        <mxCell id="Xnd19kY2QyQ1-wjz9Bap-23" value="" style="rounded=0;whiteSpace=wrap;html=1;sketch=1;curveFitting=1;jiggle=2;fillColor=#eeeeee;strokeColor=#36393d;fontFamily=Comic Sans MS;" vertex="1" parent="1">
          <mxGeometry x="128" y="759.5" width="600" height="310" as="geometry" />
        </mxCell>
        <mxCell id="Xnd19kY2QyQ1-wjz9Bap-24" value="&lt;font color=&quot;#3333ff&quot;&gt;training&lt;/font&gt;" style="text;html=1;align=center;verticalAlign=middle;resizable=0;points=[];autosize=1;strokeColor=none;fillColor=none;fontFamily=Comic Sans MS;fontStyle=1" vertex="1" parent="1">
          <mxGeometry x="140" y="767" width="70" height="30" as="geometry" />
        </mxCell>
        <mxCell id="Xnd19kY2QyQ1-wjz9Bap-25" value="" style="rounded=0;whiteSpace=wrap;html=1;sketch=1;curveFitting=1;jiggle=2;fillColor=#eeeeee;strokeColor=#36393d;fontFamily=Comic Sans MS;" vertex="1" parent="1">
          <mxGeometry x="150" y="-690" width="600" height="310" as="geometry" />
        </mxCell>
        <mxCell id="Xnd19kY2QyQ1-wjz9Bap-26" value="&lt;font style=&quot;color: rgb(51, 51, 255);&quot;&gt;vae&lt;/font&gt;" style="text;html=1;align=center;verticalAlign=middle;resizable=0;points=[];autosize=1;strokeColor=none;fillColor=none;fontFamily=Comic Sans MS;fontStyle=1" vertex="1" parent="1">
          <mxGeometry x="165" y="-680" width="40" height="30" as="geometry" />
        </mxCell>
        <mxCell id="Xnd19kY2QyQ1-wjz9Bap-31" value="" style="edgeStyle=orthogonalEdgeStyle;rounded=0;orthogonalLoop=1;jettySize=auto;html=1;exitX=0.5;exitY=1;exitDx=0;exitDy=0;" edge="1" parent="1" source="Xnd19kY2QyQ1-wjz9Bap-27" target="Xnd19kY2QyQ1-wjz9Bap-29">
          <mxGeometry relative="1" as="geometry">
            <Array as="points">
              <mxPoint x="450" y="-590" />
              <mxPoint x="366" y="-590" />
            </Array>
          </mxGeometry>
        </mxCell>
        <mxCell id="Xnd19kY2QyQ1-wjz9Bap-27" value="&lt;div&gt;vae encoder&lt;/div&gt;" style="rounded=1;whiteSpace=wrap;html=1;fontFamily=Comic Sans MS;" vertex="1" parent="1">
          <mxGeometry x="402" y="-650" width="96" height="32.5" as="geometry" />
        </mxCell>
        <mxCell id="Xnd19kY2QyQ1-wjz9Bap-29" value="crop" style="shape=trapezoid;perimeter=trapezoidPerimeter;whiteSpace=wrap;html=1;fixedSize=1;fontFamily=Comic Sans MS;direction=south;" vertex="1" parent="1">
          <mxGeometry x="343" y="-545" width="46" height="60" as="geometry" />
        </mxCell>
        <mxCell id="Xnd19kY2QyQ1-wjz9Bap-32" value="diff ratio" style="text;html=1;align=center;verticalAlign=middle;resizable=0;points=[];autosize=1;strokeColor=none;fillColor=none;fontFamily=Comic Sans MS;" vertex="1" parent="1">
          <mxGeometry x="287" y="-584" width="80" height="30" as="geometry" />
        </mxCell>
      </root>
    </mxGraphModel>
  </diagram>
</mxfile>
